<svg xmlns="http://www.w3.org/2000/svg" viewBox="0 0 32 32">
  <path fill="white" d="M16 .4C7.5.4.6 7.3.6 15.8c0 2.8.7 5.4 2.1 7.7L.4 32l8.7-2.3c2.2 1.2 4.7 1.8 7.2 1.8 8.5 0 15.4-6.9 15.4-15.4S24.5.4 16 .4zm0 28.2c-2.3 0-4.5-.6-6.4-1.7l-.5-.3-5.2 1.4 1.4-5.1-.3-.5c-1.2-2-1.8-4.2-1.8-6.5C3.2 8.6 9 2.8 16 2.8s12.8 5.8 12.8 13-5.8 12.8-12.8 12.8zm7-9.5c-.4-.2-2.3-1.1-2.7-1.2-.4-.1-.6-.2-.9.2-.3.4-1 1.2-1.2 1.4-.2.2-.4.2-.8.1-.4-.2-1.7-.6-3.3-2-.1-.1-2.2-2-2.4-2.5-.2-.4 0-.6.1-.8.1-.1.2-.3.4-.5.1-.2.2-.3.3-.5.1-.2.1-.4 0-.6-.1-.2-.9-2.2-1.2-3-.3-.8-.6-.7-.9-.7h-.8c-.3 0-.7.1-1 .4-.3.3-1.3 1.3-1.3 3.1s1.3 3.5 1.5 3.8c.2.3 2.5 3.9 6 5.4.8.3 1.5.5 2 .7.8.3 1.5.2 2 .1.6-.1 2.3-.9 2.6-1.8.3-.9.3-1.6.2-1.8-.1-.2-.3-.3-.7-.5z"/>
</svg>
